# xmcd
#
# Track frame offsets:
#	150
#	11950
#	22157
#	32120
#	41257
#	53840
#	66735
#	79482
#	89252
#	99580
#
# Disc length: 1486 seconds
#
# Revision: 1
# Processed by: cddbd v1.4b41PL1 Copyright (c) Steve Scherf et al.
# Submitted via: audiograbber 1.80
#
DISCID=8805cc0a
DTITLE=Dave Dudley - Dave Dudley Hits
DYEAR=1900
DGENRE=
TTITLE0=Six Days On the Road
TTITLE1=Truck Drivin' Son of a Gun
TTITLE2=Under Cover of Night
TTITLE3=Comin' Down
TTITLE4=There Ain't No Easy Run
TTITLE5=The Pool Shark
TTITLE6=Me and Ole C.B.
TTITLE7=Cowboy Boots
TTITLE8=Fly Away Again
TTITLE9=Fireball Rolled a "7"
EXTD=
EXTT0=
EXTT1=
EXTT2=
EXTT3=
EXTT4=
EXTT5=
EXTT6=
EXTT7=
EXTT8=
EXTT9=
PLAYORDER=
